<?xml version="1.0" encoding="UTF-8"?><svg id="Calque_2" xmlns="http://www.w3.org/2000/svg" viewBox="0 0 421.77 79.85"><defs><style>.cls-1{fill:#000;}.cls-1,.cls-2{stroke-width:0px;}.cls-2{fill:#b30909;}</style></defs><g id="Calque_1-2"><path class="cls-1" d="M114.69,48.3h-2.71v-8.98h2.71v-15.07h-5.66v36.04h-12.18V15.27h30.08v57.08h-12.24v-24.05Z"/><path class="cls-1" d="M134.12,24.19h-3.14v-8.92h15.32v36.04h5.9V15.27h12.12v45.02h-30.2V24.19Z"/><path class="cls-1" d="M177.36,24.31h-8.98v-9.04h30.08v9.04h-8.98v35.98h-12.12V24.31Z"/><path class="cls-1" d="M232.65,60.3h-30.02V15.27h30.02v45.02ZM214.69,24.25v27.06h5.9v-27.06h-5.9Z"/><path class="cls-1" d="M284.87,72.35h-12.18V24.25h-5.97v36.04h-12.06V24.25h-5.9v36.04h-12.06V15.27h48.16v57.08Z"/><path class="cls-1" d="M306.76,48.3h-2.71v-8.98h2.71v-15.07h-5.66v36.04h-12.18V15.27h30.08v45.02h-12.24v-11.99Z"/><path class="cls-1" d="M332.04,24.31h-8.98v-9.04h30.08v9.04h-8.98v35.98h-12.12V24.31Z"/><path class="cls-1" d="M387.33,60.3h-30.02V15.27h30.02v45.02ZM369.37,24.25v27.06h5.91v-27.06h-5.91Z"/><path class="cls-1" d="M391.45,15.27h11.87l6.34,14.95v-14.95h12.12v45.02h-12.12v-6.7l-6.09-14.39v21.1h-12.12V15.27Z"/><path class="cls-2" d="M38.1,0h.82c.15.19.35.3.57.37.74.24,1.48.48,2.22.73,3.15,1.04,6.31,2.08,9.46,3.12,2.23.74,4.47,1.48,6.7,2.21,3.4,1.11,6.8,2.22,10.2,3.33.29.09.56.2.82.35.41.24.65.59.73,1.06.05.27.06.54.03.82-.04.34-.05.68-.07,1.02-.04.56-.08,1.13-.12,1.69-.06.9-.13,1.79-.19,2.69-.04.58-.08,1.16-.12,1.74-.06.9-.13,1.79-.19,2.69-.04.59-.08,1.18-.12,1.77-.05.66-.09,1.31-.14,1.97-.04.6-.08,1.19-.12,1.79-.04.66-.09,1.31-.14,1.97-.04.59-.08,1.18-.12,1.77-.06.9-.13,1.79-.19,2.69-.04.58-.08,1.16-.12,1.74-.06.86-.12,1.72-.19,2.58-.05.63-.09,1.26-.14,1.89-.05.63.04,1.23.38,1.78.17.28.38.53.61.76,1.48,1.48,2.94,2.98,4.4,4.49.92.95,1.85,1.9,2.78,2.85.41.42.81.86,1.22,1.29v.72c-.42.5-.84.99-1.26,1.49-1.65,1.95-3.3,3.89-4.94,5.84-1.65,1.96-3.29,3.94-4.9,5.94-.28.35-.59.67-.95.93-.56.4-1.17.54-1.85.37-.34-.08-.66-.22-.98-.39-.47-.25-.94-.48-1.44-.68-1.18-.48-2.39-.9-3.55-1.41-.23-.1-.48-.16-.75-.17-.39,0-.67.15-.88.48-.19.29-.28.62-.37.95-.24.87-.48,1.75-.73,2.62-.6,2.07-1.23,4.13-1.79,6.21-.09.34-.18.68-.32,1-.25.57-.65,1-1.21,1.27-.25.12-.51.2-.77.27-1.25.35-2.51.7-3.76,1.04-2.57.71-5.1,1.58-7.69,2.23h-.77c-.29-.07-.59-.12-.87-.21-2.05-.61-4.1-1.23-6.15-1.83-1.56-.46-3.12-.9-4.69-1.32-.32-.09-.62-.21-.89-.39-.5-.34-.78-.83-.95-1.39-.11-.34-.2-.69-.29-1.04-.82-2.92-1.72-5.83-2.51-8.76-.06-.24-.16-.47-.29-.68-.21-.36-.53-.49-.93-.46-.24.02-.47.1-.69.19-.52.22-1.04.44-1.57.65-1.33.53-2.66,1.03-3.95,1.66-.24.12-.49.19-.76.24-.51.1-.97,0-1.39-.29-.27-.18-.51-.4-.72-.65-.81-.98-1.61-1.96-2.42-2.93-1.52-1.82-3.04-3.64-4.56-5.45-1.26-1.5-2.52-3-3.79-4.49-.24-.28-.44-.59-.73-.83v-1.13c.15-.04.25-.15.36-.24.96-.8,1.85-1.68,2.75-2.55.47-.45.91-.93,1.36-1.4,1.01-1.05,2-2.11,3.01-3.16.49-.51,1-1.01,1.5-1.51.28-.27.41-.6.42-.99,0-.52-.05-1.04-.08-1.56-.04-.65-.09-1.3-.13-1.95-.04-.6-.08-1.19-.12-1.79-.04-.61-.09-1.23-.13-1.84-.04-.64-.08-1.28-.12-1.92-.06-.87-.13-1.74-.19-2.61-.06-.89-.11-1.78-.17-2.66-.08-1.1-.16-2.2-.24-3.3-.09-1.22-.17-2.44-.25-3.66-.09-1.22-.17-2.44-.26-3.66-.08-1.19-.17-2.39-.25-3.58-.02-.32-.02-.63,0-.95.03-.57.28-1.01.77-1.32.23-.14.47-.23.73-.31,1.09-.34,2.17-.67,3.26-1.03,1.93-.64,3.86-1.29,5.79-1.94,1.94-.65,3.88-1.3,5.82-1.96,3.04-1.02,6.08-2.05,9.12-3.07,1.62-.55,3.24-1.09,4.87-1.64.11-.04.21-.07.31-.13ZM13.65,46.58c-.07,4.19,3.28,8.04,7.91,8.04,4.54,0,8.05-3.65,8.06-7.96,0-4.37-3.55-8.08-8.02-8.07-4.65,0-8.02,3.89-7.95,7.99ZM55.48,54.63c4.43-.03,7.96-3.51,7.96-8.01,0-4.54-3.58-8.02-7.94-8.04-4.35-.02-8.04,3.59-8.03,8.03,0,4.48,3.6,7.97,8.01,8.01ZM35.7,64.18c.17,0,.32-.04.47-.11.25-.12.47-.29.64-.5.31-.39.61-.78.92-1.17.12-.15.25-.28.4-.39.24-.17.48-.17.72-.02.12.07.22.16.32.26.38.38.72.8,1.05,1.22.14.18.29.36.47.51.33.29.72.36,1.1.16.57-.29,1.05-.7,1.42-1.23.22-.31.26-.66.13-1.03-.08-.21-.19-.4-.31-.59-.42-.63-.86-1.26-1.27-1.9-.76-1.17-1.51-2.34-2.26-3.52-.13-.2-.27-.38-.44-.53-.33-.28-.72-.28-1.05.01-.16.14-.28.3-.39.48-1,1.54-2,3.09-3,4.63-.26.4-.53.8-.77,1.21-.27.46-.25.92.08,1.34.33.43.74.78,1.23,1.03.17.08.35.14.54.13Z"/></g></svg>